<?xml version="1.0" encoding="UTF-8" standalone="no"?>
<!-- Created with Inkscape (http://www.inkscape.org/) -->

<svg
   xmlns:dc="http://purl.org/dc/elements/1.1/"
   xmlns:cc="http://creativecommons.org/ns#"
   xmlns:rdf="http://www.w3.org/1999/02/22-rdf-syntax-ns#"
   xmlns:svg="http://www.w3.org/2000/svg"
   xmlns="http://www.w3.org/2000/svg"
   xmlns:sodipodi="http://sodipodi.sourceforge.net/DTD/sodipodi-0.dtd"
   xmlns:inkscape="http://www.inkscape.org/namespaces/inkscape"
   id="svg2"
   version="1.1"
   inkscape:version="0.47 r22583"
   width="1000"
   height="937.45923"
   xml:space="preserve"
   sodipodi:docname="New Zealand Great Walks Logo.svg"><title
     id="title4626">New Zealand Great Walks</title><metadata
     id="metadata8"><rdf:RDF><cc:Work
         rdf:about=""><dc:format>image/svg+xml</dc:format><dc:type
           rdf:resource="http://purl.org/dc/dcmitype/StillImage" /><dc:title>New Zealand Great Walks</dc:title></cc:Work></rdf:RDF></metadata><defs
     id="defs6"><inkscape:perspective
       sodipodi:type="inkscape:persp3d"
       inkscape:vp_x="0 : 0.5 : 1"
       inkscape:vp_y="0 : 1000 : 0"
       inkscape:vp_z="1 : 0.5 : 1"
       inkscape:persp3d-origin="0.5 : 0.33333333 : 1"
       id="perspective10" /><clipPath
       clipPathUnits="userSpaceOnUse"
       id="clipPath18"><path
         d="m 113.555,841.834 408.744,0 0,-286.571 -408.744,0 0,286.571 z"
         id="path20" /></clipPath><clipPath
       clipPathUnits="userSpaceOnUse"
       id="clipPath42"><path
         d="m 9.46e-4,0.30475 595.020004,0 0,841.53 -595.020004,0 0,-841.53 z"
         id="path44" /></clipPath><clipPath
       clipPathUnits="userSpaceOnUse"
       id="clipPath230"><path
         d="m 167.429,757.935 c 12.318,0 22.649,10.998 22.649,25.01 0,14.011 -10.331,25.009 -22.649,25.009 -12.317,0 -22.647,-10.998 -22.647,-25.009 0,-14.012 10.33,-25.01 22.647,-25.01"
         id="path232" /></clipPath><clipPath
       clipPathUnits="userSpaceOnUse"
       id="clipPath404"><path
         d="m 383.213,337.309 27.775,0 0,-52.369 -27.775,0 0,52.369 z"
         id="path406" /></clipPath><clipPath
       clipPathUnits="userSpaceOnUse"
       id="clipPath416"><path
         d="m 410.898,337.309 27.864,0 0,-52.369 -27.864,0 0,52.369 z"
         id="path418" /></clipPath><clipPath
       clipPathUnits="userSpaceOnUse"
       id="clipPath428"><path
         d="m 438.673,337.309 27.864,0 0,-52.369 -27.864,0 0,52.369 z"
         id="path430" /></clipPath><clipPath
       clipPathUnits="userSpaceOnUse"
       id="clipPath440"><path
         d="m 466.447,337.309 27.775,0 0,-52.369 -27.775,0 0,52.369 z"
         id="path442" /></clipPath><clipPath
       clipPathUnits="userSpaceOnUse"
       id="clipPath500"><path
         d="m 36.127,470.89 72.641,0 0,77.466 -72.641,0 0,-77.466 z"
         id="path502" /></clipPath><clipPath
       clipPathUnits="userSpaceOnUse"
       id="clipPath712"><path
         d="m 72.438,484.843 c 12.057,0 22.417,10.758 22.417,24.782 0,14.023 -10.36,24.779 -22.417,24.779 -12.059,0 -22.417,-10.756 -22.417,-24.779 0,-14.024 10.358,-24.782 22.417,-24.782"
         id="path714" /></clipPath><clipPath
       clipPathUnits="userSpaceOnUse"
       id="clipPath788"><path
         d="m 72.438,484.843 c 12.057,0 22.417,10.758 22.417,24.782 0,14.023 -10.36,24.779 -22.417,24.779 -12.059,0 -22.417,-10.756 -22.417,-24.779 0,-14.024 10.358,-24.782 22.417,-24.782"
         id="path790" /></clipPath><clipPath
       clipPathUnits="userSpaceOnUse"
       id="clipPath832"><path
         d="m 72.438,484.843 c 12.057,0 22.417,10.758 22.417,24.782 0,14.023 -10.36,24.779 -22.417,24.779 -12.059,0 -22.417,-10.756 -22.417,-24.779 0,-14.024 10.358,-24.782 22.417,-24.782"
         id="path834" /></clipPath><clipPath
       clipPathUnits="userSpaceOnUse"
       id="clipPath856"><path
         d="m 72.438,484.843 c 12.057,0 22.417,10.758 22.417,24.782 0,14.023 -10.36,24.779 -22.417,24.779 -12.059,0 -22.417,-10.756 -22.417,-24.779 0,-14.024 10.358,-24.782 22.417,-24.782"
         id="path858" /></clipPath><clipPath
       clipPathUnits="userSpaceOnUse"
       id="clipPath1340"><path
         d="m 319.47,478.801 50.292,0 0,-60.919 -50.292,0 0,60.919 z"
         id="path1342" /></clipPath><clipPath
       clipPathUnits="userSpaceOnUse"
       id="clipPath1352"><path
         d="m 319.823,547.158 49.94,0 0,-62.335 -49.94,0 0,62.335 z"
         id="path1354" /></clipPath><clipPath
       clipPathUnits="userSpaceOnUse"
       id="clipPath1364"><path
         d="m 319.493,412.569 50.269,0 0,-61.321 -50.269,0 0,61.321 z"
         id="path1366" /></clipPath><clipPath
       clipPathUnits="userSpaceOnUse"
       id="clipPath1376"><path
         d="m 319.493,344.921 50.269,0 0,-61.439 -50.269,0 0,61.439 z"
         id="path1378" /></clipPath><clipPath
       clipPathUnits="userSpaceOnUse"
       id="clipPath1694"><path
         d="m 150.108,284.482 117.734,0 0,263.765 -117.734,0 0,-263.765 z"
         id="path1696" /></clipPath><clipPath
       clipPathUnits="userSpaceOnUse"
       id="clipPath1700"><path
         d="m 150.254,284.482 117.506,0 0,263.674 -117.506,0 0,-263.674 z m 117.505,0 z m -3.843,6.084 -8.3235,0 0,76.975 8.3235,0 0,-76.975 z"
         id="path1702" /></clipPath><clipPath
       clipPathUnits="userSpaceOnUse"
       id="clipPath1712"><path
         d="m 433.515,5.9716 143.134,0 0,263.578 -143.134,0 0,-263.578 z"
         id="path1714" /></clipPath><clipPath
       clipPathUnits="userSpaceOnUse"
       id="clipPath1718"><path
         d="m 433.516,5.9713 143.088,0 0,263.51 -143.088,0 0,-263.51 z m 143.088,0 z m -3.423,4.0223 -7.6188,0 0,88.022 7.6188,0 0,-88.022 z"
         id="path1720" /></clipPath><clipPath
       clipPathUnits="userSpaceOnUse"
       id="clipPath1730"><path
         d="m 36.044,5.9601 114.707,0 0,263.613 -114.707,0 0,-263.613 z"
         id="path1732" /></clipPath><clipPath
       clipPathUnits="userSpaceOnUse"
       id="clipPath1736"><path
         d="m 36.127,5.9713 114.517,0 0,0.7267 -14.943,0 0,75.808 14.943,0 0,186.976 -114.517,0"
         id="path1738" /></clipPath><clipPath
       clipPathUnits="userSpaceOnUse"
       id="clipPath1748"><path
         d="m 150.645,82.505 3.2876,0 0,-75.807 -3.2876,0 0,75.807 z"
         id="path1750" /></clipPath><clipPath
       clipPathUnits="userSpaceOnUse"
       id="clipPath1760"><path
         d="m 135.618,6.5653 15.134,0 0,76.118 -15.134,0 0,-76.118 z"
         id="path1762" /></clipPath><clipPath
       clipPathUnits="userSpaceOnUse"
       id="clipPath1766"><path
         d="m 135.7,6.698 14.945,0 0,75.807 -14.945,0 0,-75.807 z m 14.944,0 z m -4.014,3.375 -7.5558,0 0,65.735 7.5558,0 0,-65.735 z"
         id="path1768" /></clipPath><clipPath
       clipPathUnits="userSpaceOnUse"
       id="clipPath1778"><path
         d="m 139.075,75.807 7.5558,0 0,-65.735 -7.5558,0 0,65.735 z"
         id="path1780" /></clipPath><clipPath
       clipPathUnits="userSpaceOnUse"
       id="clipPath1794"><path
         d="m 565.562,98.016 7.6188,0 0,-88.022 -7.6188,0 0,88.022 z"
         id="path1796" /></clipPath><clipPath
       clipPathUnits="userSpaceOnUse"
       id="clipPath1810"><path
         d="m 255.592,367.542 8.3234,0 0,-76.975 -8.3234,0 0,76.975 z"
         id="path1812" /></clipPath></defs><sodipodi:namedview
     pagecolor="#ffffff"
     bordercolor="#666666"
     borderopacity="1"
     objecttolerance="10"
     gridtolerance="10"
     guidetolerance="10"
     inkscape:pageopacity="0"
     inkscape:pageshadow="2"
     inkscape:window-width="1280"
     inkscape:window-height="962"
     id="namedview4"
     showgrid="false"
     inkscape:zoom="0.76269982"
     inkscape:cx="500"
     inkscape:cy="468.72962"
     inkscape:window-x="-8"
     inkscape:window-y="-8"
     inkscape:window-maximized="1"
     inkscape:current-layer="g12" /><g
     id="g12"
     inkscape:groupmode="layer"
     inkscape:label="great-walks-and-other-tracks-low-res"
     transform="matrix(0,1.25,1.25,0,-478.78187,259.11837)"><g
       id="g118"
       transform="matrix(10.229525,0,0,10.229525,167.689,1183.0255)"><path
         d="m 0,0 c 20.973,0 36.657,-18.266 36.657,-39.102 0,-20.836 -15.684,-39.103 -36.657,-39.103 -20.974,0 -36.657,18.267 -36.657,39.103 C -36.657,-18.266 -20.974,0 0,0"
         style="fill:#ffffff;fill-opacity:1;fill-rule:evenodd;stroke:none"
         id="path120" /></g><g
       id="g122"
       transform="matrix(10.229525,0,0,10.229525,158.78931,1155.7229)"><path
         d="m 0,0 c 18.887,0 34.197,-16.186 34.197,-36.151 0,-19.967 -15.31,-36.152 -34.197,-36.152 -18.887,0 -34.197,16.185 -34.197,36.152 C -34.197,-16.186 -18.887,0 0,0"
         style="fill:#ffffff;fill-opacity:1;fill-rule:nonzero;stroke:none"
         id="path124" /></g><g
       id="g126"
       transform="matrix(10.229525,0,0,10.229525,158.78931,1155.7229)"><path
         d="m 0,0 c 18.887,0 34.197,-16.186 34.197,-36.151 0,-19.967 -15.31,-36.152 -34.197,-36.152 -18.887,0 -34.197,16.185 -34.197,36.152 C -34.197,-16.186 -18.887,0 0,0 z"
         style="fill:none;stroke:#231f20;stroke-width:0.32600001;stroke-linecap:butt;stroke-linejoin:miter;stroke-miterlimit:4;stroke-opacity:1;stroke-dasharray:none"
         id="path128" /></g><g
       id="g130"
       transform="matrix(10.229525,0,0,10.229525,167.689,1173.2665)"><path
         d="m 0,0 c 20.461,0 35.763,-17.821 35.763,-38.149 0,-20.328 -15.302,-38.149 -35.763,-38.149 -20.462,0 -35.764,17.821 -35.764,38.149 C -35.764,-17.821 -20.462,0 0,0"
         style="fill:#104432;fill-opacity:1;fill-rule:evenodd;stroke:none"
         id="path132" /></g><g
       id="g134"
       transform="matrix(10.229525,0,0,10.229525,167.689,1062.5831)"><path
         d="m 0,0 c -13.625,0 -24.942,-12.079 -24.942,-27.329 0,-15.248 11.317,-27.328 24.942,-27.328 13.625,0 24.942,12.08 24.942,27.328 C 24.942,-12.079 13.625,0 0,0"
         style="fill:#ffffff;fill-opacity:1;fill-rule:evenodd;stroke:none"
         id="path136" /></g><g
       id="g138"
       transform="matrix(10.229525,0,0,10.229525,179.3302,447.17485)"><path
         d="M 0,0 C -0.003,0.161 -0.03,0.312 -0.081,0.455 -0.132,0.593 -0.2,0.713 -0.286,0.816 -0.371,0.919 -0.47,1 -0.582,1.058 -0.698,1.117 -0.82,1.146 -0.948,1.143 -1.077,1.14 -1.195,1.108 -1.305,1.045 -1.419,0.983 -1.516,0.899 -1.598,0.793 -1.679,0.688 -1.743,0.565 -1.789,0.425 -1.836,0.281 -1.858,0.128 -1.855,-0.032 c 0.003,-0.161 0.03,-0.311 0.081,-0.449 0.051,-0.142 0.119,-0.265 0.205,-0.368 0.085,-0.102 0.186,-0.183 0.301,-0.242 0.112,-0.059 0.232,-0.087 0.361,-0.085 0.128,0.002 0.249,0.035 0.363,0.098 0.11,0.062 0.205,0.147 0.287,0.252 0.082,0.106 0.146,0.231 0.192,0.375 C -0.019,-0.311 0.003,-0.161 0,0"
         style="fill:#ffffff;fill-opacity:1;fill-rule:nonzero;stroke:none"
         id="path140" /></g><g
       id="g142"
       transform="matrix(10.229525,0,0,10.229525,161.50014,1118.8352)"><path
         d="m 0,0 c -0.003,-0.161 0.019,-0.313 0.065,-0.457 0.046,-0.14 0.11,-0.263 0.191,-0.369 0.082,-0.105 0.178,-0.189 0.288,-0.252 0.114,-0.063 0.235,-0.095 0.364,-0.098 0.128,-0.001 0.248,0.027 0.36,0.085 0.115,0.059 0.216,0.14 0.301,0.243 0.086,0.102 0.154,0.223 0.205,0.361 0.051,0.143 0.078,0.294 0.081,0.455 C 1.858,0.128 1.836,0.279 1.789,0.419 1.743,0.563 1.68,0.688 1.598,0.794 1.517,0.899 1.419,0.983 1.305,1.046 1.195,1.109 1.077,1.141 0.948,1.144 0.819,1.146 0.697,1.118 0.582,1.058 0.47,1 0.37,0.919 0.285,0.816 0.2,0.714 0.132,0.591 0.081,0.449 0.03,0.31 0.003,0.161 0,0"
         style="fill:#ffffff;fill-opacity:1;fill-rule:nonzero;stroke:none"
         id="path144" /></g><g
       id="g146"
       transform="matrix(10.229525,0,0,10.229525,31.769302,474.17057)"><path
         d="m 0,0 c -0.383,-0.86 -0.293,-1.477 0.459,-1.812 0.876,-0.39 1.468,0.223 2.102,1.645 C 3.218,1.308 3.401,2.169 2.559,2.544 2.239,2.686 1.943,2.647 1.632,2.386 L 1.622,2.39 1.797,2.783 1.293,3.007 0.27,0.711 1.379,0.216 1.66,0.848 1.208,1.049 1.402,1.485 C 1.607,1.946 1.968,2.051 2.13,1.978 2.525,1.802 2.314,1.123 1.857,0.097 1.387,-0.958 1.064,-1.325 0.731,-1.177 0.455,-1.055 0.517,-0.607 0.657,-0.293"
         style="fill:#ffffff;fill-opacity:1;fill-rule:nonzero;stroke:none"
         id="path148" /></g><g
       id="g150"
       transform="matrix(10.229525,0,0,10.229525,3.8426986,530.97512)"><path
         d="m 0,0 -0.575,0.482 -1.264,-1.507 -0.307,0.258 c -0.232,0.194 -0.189,0.448 0.037,0.734 l 0.558,0.697 c 0.113,0.143 0.214,0.288 0.242,0.435 L -1.932,1.621 -1.957,1.591 C -1.908,1.43 -2.055,1.223 -2.365,0.846 -2.99,0.085 -3.156,-0.235 -2.819,-0.628 l -0.008,-0.01 c -0.395,0.187 -0.814,-0.006 -1.212,-0.479 -0.511,-0.609 -0.483,-1.16 -0.012,-1.555 L -2.99,-3.562 0,0 z m -3.121,-2.552 -0.271,0.228 c -0.259,0.218 -0.26,0.5 0.015,0.83 0.323,0.384 0.604,0.403 0.88,0.172 l 0.239,-0.201"
         style="fill:#ffffff;fill-opacity:1;fill-rule:evenodd;stroke:none"
         id="path152" /></g><g
       id="g154"
       transform="matrix(10.229525,0,0,10.229525,-86.504466,554.0427)"><path
         d="M 0,0 3.762,2.734 2.51,4.458 1.888,4.006 2.7,2.889 1.687,2.154 0.953,3.166 0.331,2.714 1.067,1.702 0.181,1.059 -0.601,2.134 -1.222,1.682"
         style="fill:#ffffff;fill-opacity:1;fill-rule:nonzero;stroke:none"
         id="path156" /></g><g
       id="g158"
       transform="matrix(10.229525,0,0,10.229525,-125.13115,634.94801)"><path
         d="M 0,0 -0.004,0.01 1.759,1.188 2.056,0.522 0,0 z M 4.098,0.245 3.779,0.959 2.812,0.716 2.409,1.62 3.238,2.177 2.92,2.892 -0.929,0.1 -0.552,-0.748"
         style="fill:#ffffff;fill-opacity:1;fill-rule:evenodd;stroke:none"
         id="path160" /></g><g
       id="g162"
       transform="matrix(10.229525,0,0,10.229525,-153.79428,693.29722)"><path
         d="M 0,0 0.752,0.16 0.583,0.955 4.38,1.762 4.224,2.496 0.427,1.688 0.258,2.484 -0.494,2.324"
         style="fill:#ffffff;fill-opacity:1;fill-rule:nonzero;stroke:none"
         id="path164" /></g><g
       id="g166"
       transform="matrix(10.229525,0,0,10.229525,-113.72523,832.41876)"><path
         d="M 0,0 0.146,0.827 -3.105,1.822 -3.103,1.833 0.292,1.657 0.438,2.484 -4.024,3.958 -4.149,3.251 -0.834,2.248 -0.836,2.237 -4.299,2.404 -4.423,1.695 -1.113,0.667 -1.115,0.657 -4.573,0.849 -4.698,0.14"
         style="fill:#ffffff;fill-opacity:1;fill-rule:nonzero;stroke:none"
         id="path168" /></g><g
       id="g170"
       transform="matrix(10.229525,0,0,10.229525,-124.70151,934.80608)"><path
         d="M 0,0 0.004,0.009 2.061,-0.513 1.764,-1.18 0,0 z m 2.924,-2.882 0.318,0.714 -0.829,0.558 0.403,0.904 0.968,-0.243 0.318,0.714 -4.649,0.992 -0.378,-0.847"
         style="fill:#ffffff;fill-opacity:1;fill-rule:evenodd;stroke:none"
         id="path172" /></g><g
       id="g174"
       transform="matrix(10.229525,0,0,10.229525,-46.384269,988.56223)"><path
         d="M 0,0 -0.614,0.463 -1.413,-0.599 -4.514,1.738 -4.966,1.139 -1.251,-1.66"
         style="fill:#ffffff;fill-opacity:1;fill-rule:nonzero;stroke:none"
         id="path176" /></g><g
       id="g178"
       transform="matrix(10.229525,0,0,10.229525,-44.900988,1058.5526)"><path
         d="M 0,0 2.99,-3.563 3.564,-3.081 2.677,-2.022 2.549,-1.441 4.363,-2.411 5.01,-1.868 2.439,-0.556 1.933,1.621 1.309,1.099 1.78,-0.939 1.772,-0.946 0.576,0.482"
         style="fill:#ffffff;fill-opacity:1;fill-rule:nonzero;stroke:none"
         id="path180" /></g><g
       id="g182"
       transform="matrix(10.229525,0,0,10.229525,37.528524,1076.3111)"><path
         d="M 0,0 0.077,-0.173 C 0.427,-0.959 0.933,-1.274 1.708,-0.93 2.451,-0.599 2.709,0.001 2.309,0.9 2.078,1.417 1.799,1.685 1.16,1.736 L 0.505,1.786 C 0.146,1.812 0.012,1.944 -0.104,2.207 -0.215,2.457 -0.243,2.737 0.066,2.875 0.328,2.991 0.541,2.808 0.719,2.409 L 1.375,2.702 1.322,2.821 C 0.96,3.636 0.371,3.766 -0.238,3.495 -0.886,3.206 -1.103,2.604 -0.734,1.776 -0.419,1.069 0.003,0.878 0.729,0.888 1.268,0.893 1.488,0.82 1.661,0.433 1.82,0.076 1.694,-0.18 1.485,-0.273 1.124,-0.434 0.919,-0.218 0.741,0.18 L 0.686,0.305"
         style="fill:#ffffff;fill-opacity:1;fill-rule:nonzero;stroke:none"
         id="path184" /></g><g
       id="g186"
       transform="matrix(10.229525,0,0,10.229525,269.11474,499.683)"><path
         d="m 0,0 1.892,-4.249 0.628,0.28 -1.325,2.975 0.009,0.004 2.164,-2.601 0.78,0.346 L 2.257,1.005 1.628,0.724 2.924,-2.185 2.914,-2.189 0.791,0.352"
         style="fill:#ffffff;fill-opacity:1;fill-rule:nonzero;stroke:none"
         id="path188" /></g><g
       id="g190"
       transform="matrix(10.229525,0,0,10.229525,331.56599,535.54772)"><path
         d="M 0,0 2.99,-3.562 4.623,-2.193 4.128,-1.604 3.071,-2.492 2.266,-1.533 3.225,-0.73 2.731,-0.141 1.772,-0.945 1.07,-0.107 2.087,0.748 1.593,1.336"
         style="fill:#ffffff;fill-opacity:1;fill-rule:nonzero;stroke:none"
         id="path192" /></g><g
       id="g194"
       transform="matrix(10.229525,0,0,10.229525,420.67538,558.18566)"><path
         d="M 0,0 0.493,0.679 -1.991,3 -1.985,3.008 0.99,1.361 1.482,2.04 -1.882,5.322 -2.305,4.74 0.236,2.386 0.23,2.377 -2.81,4.045 -3.233,3.464 -0.707,1.088 -0.714,1.078 -3.738,2.768 -4.16,2.185"
         style="fill:#ffffff;fill-opacity:1;fill-rule:nonzero;stroke:none"
         id="path196" /></g><g
       id="g198"
       transform="matrix(10.229525,0,0,10.229525,484.93726,692.0083)"><path
         d="M 0,0 0.47,2.207 -0.283,2.367 -0.576,0.986 -3.39,3.006 -4.084,3.154 -4.53,1.059 -3.777,0.899 -3.512,2.147 -0.669,0.142"
         style="fill:#ffffff;fill-opacity:1;fill-rule:nonzero;stroke:none"
         id="path200" /></g><g
       id="g202"
       transform="matrix(10.229525,0,0,10.229525,447.96775,769.23099)"><path
         d="M 0,0 4.65,-0.081 4.687,2.05 3.919,2.063 3.895,0.683 2.644,0.705 2.666,1.955 1.897,1.968 1.876,0.718 0.782,0.737 0.805,2.066 0.036,2.079"
         style="fill:#ffffff;fill-opacity:1;fill-rule:nonzero;stroke:none"
         id="path204" /></g><g
       id="g206"
       transform="matrix(10.229525,0,0,10.229525,449.53287,849.27702)"><path
         d="M 0,0 -0.002,0.01 1.982,0.762 2.121,0.046 0,0 z M 4.048,-0.684 3.899,0.084 2.901,0.065 2.712,1.037 3.644,1.393 3.496,2.161 -0.882,0.307 -0.705,-0.604"
         style="fill:#ffffff;fill-opacity:1;fill-rule:evenodd;stroke:none"
         id="path208" /></g><g
       id="g210"
       transform="matrix(10.229525,0,0,10.229525,459.30207,942.75442)"><path
         d="m 0,0 -0.702,-0.313 0.54,-1.213 -3.546,-1.58 0.305,-0.685 4.25,1.892"
         style="fill:#ffffff;fill-opacity:1;fill-rule:nonzero;stroke:none"
         id="path212" /></g><g
       id="g214"
       transform="matrix(10.229525,0,0,10.229525,392.84084,976.49139)"><path
         d="M 0,0 -0.007,0.008 1.473,1.528 1.903,0.939 0,0 z M 3.957,1.091 3.498,1.723 2.601,1.284 2.019,2.085 2.714,2.803 2.254,3.436 -0.93,-0.095 -0.384,-0.846"
         style="fill:#ffffff;fill-opacity:1;fill-rule:evenodd;stroke:none"
         id="path216" /></g><g
       id="g218"
       transform="matrix(10.229525,0,0,10.229525,346.5011,1015.2817)"><path
         d="M 0,0 2.927,3.614 2.392,4.047 0.343,1.516 0.335,1.523 1.671,4.631 1.008,5.169 -1.92,1.554 -1.384,1.122 0.62,3.598 0.628,3.59 -0.673,0.545"
         style="fill:#ffffff;fill-opacity:1;fill-rule:nonzero;stroke:none"
         id="path220" /></g><g
       id="g222"
       transform="matrix(10.229525,0,0,10.229525,282.34152,1065.1609)"><path
         d="m 0,0 -0.29,0.129 c -0.525,0.234 -0.367,0.755 0.063,1.719 0.514,1.155 0.776,1.487 1.253,1.275 L 1.33,2.988 0,0 z M 2.296,3.313 1.215,3.794 C 0.306,4.199 -0.253,3.635 -0.923,2.129 -1.479,0.88 -1.671,-0.012 -0.719,-0.436 l 1.124,-0.5"
         style="fill:#ffffff;fill-opacity:1;fill-rule:evenodd;stroke:none"
         id="path224" /></g><g
       id="g226"
       transform="matrix(10.229525,0,0,10.229525,-1547.6898,-7226.9534)"><g
         id="g228"
         clip-path="url(#clipPath230)"><g
           id="g234"
           transform="translate(183.551,752.587)"><path
             d="M 0,0 -5.086,27.385 13.545,27.204 12.761,0"
             style="fill:#4d7362;fill-opacity:1;fill-rule:nonzero;stroke:none"
             id="path236" /></g><g
           id="g238"
           transform="translate(179.48,783.023)"><path
             d="M 0,0 15.817,0.903 15.922,28.683 2.714,28.388"
             style="fill:#4d7362;fill-opacity:1;fill-rule:nonzero;stroke:none"
             id="path240" /></g><g
           id="g242"
           transform="translate(168.09,777.6)"><path
             d="m 0,0 8.471,2.035 0.567,0 0.561,-5.422 4.518,-21.627 -38.057,1.522 -0.455,57.302 38.5,0.407 L 9.473,10.501 8.682,5.086 7.458,4.631 1.924,9.829 0.284,9.281 5.048,3.683 2.483,2.596 0.081,2.299"
             style="fill:#6cbce3;fill-opacity:1;fill-rule:nonzero;stroke:none"
             id="path244" /></g><g
           id="g246"
           transform="translate(167.398,752.752)"><path
             d="m 0,0 c 0,0 1.686,18.182 7.563,21.911 0,0 2.831,-1.239 3.392,-19.876 l 0,-3.273 -10.618,1.126"
             style="fill:#ffffff;fill-opacity:1;fill-rule:nonzero;stroke:none"
             id="path248" /></g><g
           id="g250"
           transform="translate(166.496,812.048)"><path
             d="m 0,0 c 0,0 -0.336,-13.551 3.275,-16.153 0,0 3.385,1.923 2.483,16.944"
             style="fill:#ffffff;fill-opacity:1;fill-rule:nonzero;stroke:none"
             id="path252" /></g><g
           id="g254"
           transform="translate(166.496,812.048)"><path
             d="m 0,0 c 0,0 -0.336,-13.551 3.275,-16.153 0,0 3.385,1.923 2.483,16.944 L 0,0 z"
             style="fill:none;stroke:#ffffff;stroke-width:0.105;stroke-linecap:butt;stroke-linejoin:miter;stroke-miterlimit:3.86400008;stroke-opacity:1;stroke-dasharray:none"
             id="path256" /></g><g
           id="g258"
           transform="translate(168.914,776.71)"><path
             d="m 0,0 c 0,0 3.727,2.783 14.86,2.258 0,0 9.188,-0.683 13.388,0.735 l -0.315,2.783 c 0,0 -12.602,-1.366 -17.747,-1.471 0,0 -5.198,-0.893 -6.983,-1.47 l -3.361,-0.84"
             style="fill:#104432;fill-opacity:1;fill-rule:nonzero;stroke:none"
             id="path260" /></g><g
           id="g262"
           transform="translate(169.589,787.397)"><path
             d="m 0,0 c 0,0 4.778,-5.146 5.619,-5.303 l 4.778,0.42 -5.041,1.156 -3.939,2.624"
             style="fill:#104432;fill-opacity:1;fill-rule:nonzero;stroke:none"
             id="path264" /></g><g
           id="g266"
           transform="translate(169.536,787.135)"><path
             d="m 0,0 c 0,0 4.831,-5.041 10.187,-4.673 0,0 15.962,1.05 16.906,1.155 l 0.105,0.472 c 0,0 -7.609,-0.42 -13.387,-0.684 -1.88,-0.085 -3.724,-0.11 -5.548,-0.093 -0.811,0.008 -4.472,1.822 -5.245,2.378 -0.354,0.254 -0.682,0.527 -0.97,0.815 L 0.841,0.473"
             style="fill:#104432;fill-opacity:1;fill-rule:nonzero;stroke:none"
             id="path268" /></g><g
           id="g270"
           transform="translate(150.596,767.364)"><path
             d="m 0,0 0.683,2.205 c 0,0 2.783,0.893 3.885,1.943 L 4.2,0.735 c 0,0 2.783,-2.993 3.151,-3.466 l -2.1,3.414 2.153,2.205 c 0,0 1.89,-2.888 2.362,-3.361 0,0 1.575,-0.21 3.78,0.053 0,0 -1.942,0.368 -2.783,0.735 L 9.451,3.308 c 0,0 2.888,-1.47 3.833,-1.891 0,0 1.681,-0.366 5.304,0.473 l -4.201,0.683 -0.736,0.735 c 0,0 3.624,0.053 7.299,0.997 0,0 -3.098,0.263 -3.885,0.578 0,0 2.31,0.526 5.198,1.68 0,0 -4.253,-0.262 -5.25,0.158 0,0 3.727,1.785 7.14,2.258 0,0 -4.936,0.472 -6.038,0 l 0.945,0.945 -0.578,0.892 -0.157,1.734 3.676,1.154 c 0,0 -2.941,0 -4.517,-0.21 l 4.149,1.523 -0.455,0.633 c 0,0 -4.324,-1.158 -6.371,-1.368 0,0 1.313,1.89 4.673,3.046 l -0.84,0.944 c 0,0 -3.414,-0.263 -4.253,-0.42 l 0.735,1.051 c 0,0 5.355,0.945 6.879,1.207 0,0 -1.471,0.735 -5.304,0.735 0,0 3.255,2.416 8.191,2.626 0,0 -2.94,1.207 -8.296,-0.158 l 2.888,1.838 4.095,0.945 -4.567,0.105 c 0,0 -3.886,-1.785 -4.253,-2.047 0,0 -0.263,0.21 3.412,2.939 l 3.676,1.208 -4.41,-0.052 -6.459,-2.941 c 0,0 1.05,1.89 5.671,3.571 0,0 -1.786,-0.052 -4.673,-0.63 0,0 0.63,0.735 4.935,2.258 0,0 -6.249,0.473 -10.081,-3.623 l 1.417,2.624 4.673,2.416 -5.88,-1.102 -1.156,-2.678 -1.207,1.522 1.522,3.256 c 0,0 -3.57,-2.626 -2.573,-4.095 l 1.419,-3.361 c 0,0 -3.781,2.678 -4.306,4.725 0,0 0.998,-4.095 2.1,-5.461 l -4.095,2.102 -0.42,1.364 c 0,0 -0.735,-1.47 0.629,-2.73 L 4.2,21.423 c 0,0 -1.995,-0.315 -2.625,-1.26 l 1.26,-1.103 -0.21,0.736 1.418,0.367 -0.421,-2.048 -2.624,1.733 c 0,0 -1.366,2.782 -1.313,4.043 0,0 -0.316,-2.363 -0.158,-4.095 L 1.89,16.645 c 0,0 -3.15,0.788 -4.516,2.52 l 0.368,1.05 -0.893,-1.312 c 0,0 2.993,-3.886 4.254,-4.148 0,0 -3.466,0 -6.407,-0.788 0,0 2.521,-1.05 5.882,-1.26 0,0 -3.519,-0.946 -6.144,-3.203 0,0 2.258,0.945 5.303,0.998 l 0.578,-0.105 c 0,0 -3.203,-2.048 -3.781,-2.993 0,0 4.517,2.1 7.929,2.205 0,0 -6.353,-3.046 -7.929,-5.409 0,0 6.196,2.731 7.299,2.731 L 0.105,4.043"
             style="fill:#104432;fill-opacity:1;fill-rule:evenodd;stroke:none"
             id="path272" /></g><g
           id="g274"
           transform="translate(183.722,764.023)"><path
             d="M 0,0 -3.956,14.101 1.465,0.652"
             style="fill:#104432;fill-opacity:1;fill-rule:nonzero;stroke:none"
             id="path276" /></g><g
           id="g278"
           transform="translate(184.963,776.612)"><path
             d="M 0,0 1.086,0.238 2.884,-14.044"
             style="fill:#104432;fill-opacity:1;fill-rule:nonzero;stroke:none"
             id="path280" /></g><g
           id="g282"
           transform="translate(185.691,799.802)"><path
             d="M 0,0 0.595,-14.765 1.435,0.238"
             style="fill:#104432;fill-opacity:1;fill-rule:nonzero;stroke:none"
             id="path284" /></g><g
           id="g286"
           transform="translate(182.895,794.834)"><path
             d="m 0,0 c 0,0 -0.608,-6.965 -1.79,-9.711 0,0 1.875,4.049 2.94,8.961"
             style="fill:#104432;fill-opacity:1;fill-rule:evenodd;stroke:none"
             id="path288" /></g><g
           id="g290"
           transform="translate(189.91,769.356)"><path
             d="M 0,0 -1.624,7.921 0.773,0.626"
             style="fill:#104432;fill-opacity:1;fill-rule:nonzero;stroke:none"
             id="path292" /></g></g></g><g
       id="g294"
       transform="matrix(10.229525,0,0,10.229525,154.66681,716.04769)"><path
         d="m 0,0 -0.89,1.038 c 0,0 5.62,0.646 6.89,1.121"
         style="fill:#ffffff;fill-opacity:1;fill-rule:evenodd;stroke:none"
         id="path296" /></g><g
       id="g298"
       transform="matrix(10.229525,0,0,10.229525,180.83394,751.33955)"><path
         d="M 0,0 C 0,0 3.518,0.368 5.408,1.417 L 4.305,1.47 c 0,0 -2.573,3.938 -4.935,5.513 l -0.84,-0.21 c 0,0 3.413,-2.1 5.092,-5.251 0,0 -0.787,-0.787 -3.99,-1.154"
         style="fill:#104432;fill-opacity:1;fill-rule:nonzero;stroke:none"
         id="path300" /></g><g
       id="g302"
       transform="matrix(10.229525,0,0,10.229525,107.94857,722.21609)"><path
         d="m 0,0 c 0,0 3.885,-1.627 5.514,-2.205 0,0 -2.678,1.364 -4.149,3.151"
         style="fill:#ffffff;fill-opacity:1;fill-rule:nonzero;stroke:none"
         id="path304" /></g><g
       id="g306"
       transform="matrix(10.229525,0,0,10.229525,111.25271,737.45808)"><path
         d="m 0,0 c 0,0 3.79,0.136 5.512,0.271 0,0 -2.744,0.031 -4.813,1.062"
         style="fill:#ffffff;fill-opacity:1;fill-rule:nonzero;stroke:none"
         id="path308" /></g><g
       id="g310"
       transform="matrix(10.229525,0,0,10.229525,97.442852,761.55884)"><path
         d="m 0,0 c 0,0 3.68,0.915 5.373,1.259 0,0 -2.328,-0.625 -4.034,-2.189"
         style="fill:#ffffff;fill-opacity:1;fill-rule:evenodd;stroke:none"
         id="path312" /></g><g
       id="g314"
       transform="matrix(10.229525,0,0,10.229525,49.640282,765.36423)"><path
         d="m 0,0 c 0,0 -2.151,3.086 -3.106,4.525 0,0 2.931,-3.622 5.019,-4.617"
         style="fill:#ffffff;fill-opacity:1;fill-rule:nonzero;stroke:none"
         id="path316" /></g><g
       id="g318"
       transform="matrix(10.229525,0,0,10.229525,149.17356,716.18067)"><path
         d="m 0,0 -0.946,1.103 c 0,0 5.973,0.687 7.323,1.192"
         style="fill:#ffffff;fill-opacity:1;fill-rule:evenodd;stroke:none"
         id="path320" /></g><g
       id="g322"
       transform="matrix(10.229525,0,0,10.229525,80.69712,700.95914)"><path
         d="m 0,0 1.245,0.59 c 0,0 3.122,-3.423 4.39,-4.111"
         style="fill:#ffffff;fill-opacity:1;fill-rule:evenodd;stroke:none"
         id="path324" /></g><g
       id="g326"
       transform="matrix(10.229525,0,0,10.229525,138.49394,749.72328)"><path
         d="m 0,0 c 0,0 0.893,-0.052 5.462,2.363 0,0 -3.467,-0.893 -6.092,-1.207"
         style="fill:#ffffff;fill-opacity:1;fill-rule:nonzero;stroke:none"
         id="path328" /></g><g
       id="g330"
       transform="matrix(10.229525,0,0,10.229525,127.1187,789.67981)"><path
         d="m 0,0 1.156,-0.893 c 0,0 1.522,1.103 5.355,2.101 0,0 -4.201,-0.315 -6.301,-1.05"
         style="fill:#ffffff;fill-opacity:1;fill-rule:nonzero;stroke:none"
         id="path332" /></g><g
       id="g334"
       transform="matrix(10.229525,0,0,10.229525,106.74149,794.3547)"><path
         d="m 0,0 1.103,-0.788 c 0,0 0.734,2.31 5.04,4.149 0,0 -3.833,-0.946 -5.986,-3.151"
         style="fill:#ffffff;fill-opacity:1;fill-rule:nonzero;stroke:none"
         id="path336" /></g><g
       id="g338"
       transform="matrix(10.229525,0,0,10.229525,81.024464,784.63665)"><path
         d="m 0,0 1.276,-0.453 c 0,0 0.774,3.153 4.407,6.107 0,0 -4.128,-2.695 -5.589,-5.409"
         style="fill:#ffffff;fill-opacity:1;fill-rule:nonzero;stroke:none"
         id="path340" /></g><g
       id="g342"
       transform="matrix(10.229525,0,0,10.229525,-6.5300397,763.68658)"><path
         d="M 0,0 C 0,0 -0.047,0.055 0.295,-0.133 0.869,-0.448 2.149,-1.057 4.253,-1.417 L 5.491,-0.56"
         style="fill:#ffffff;fill-opacity:1;fill-rule:evenodd;stroke:none"
         id="path344" /></g><g
       id="g346"
       transform="matrix(10.229525,0,0,10.229525,121.65614,709.78722)"><path
         d="m 0,0 -1.426,-0.751 c 0,0 2.403,-1.701 3.159,-1.809 0.758,-0.107 0.193,-0.085 0.193,-0.085 l 3.022,-0.312 c 0,0 -1.444,0.241 -3.922,1.518"
         style="fill:#ffffff;fill-opacity:1;fill-rule:nonzero;stroke:none"
         id="path348" /></g><g
       id="g350"
       transform="matrix(10.229525,0,0,10.229525,64.32988,782.74419)"><path
         d="m 0,0 -1.155,2.048 c 0,0 1.733,2.205 3.833,3.885 l -2.573,-4.096 1.103,-2.1"
         style="fill:#ffffff;fill-opacity:1;fill-rule:nonzero;stroke:none"
         id="path352" /></g><g
       id="g354"
       transform="matrix(10.229525,0,0,10.229525,134.58626,830.88433)"><path
         d="m 0,0 0.678,-0.457 c 0,0 1.947,2.09 4.992,3.485 0,0 -3.631,-1.134 -5.472,-2.669"
         style="fill:#ffffff;fill-opacity:1;fill-rule:nonzero;stroke:none"
         id="path356" /></g><g
       id="g358"
       transform="matrix(10.229525,0,0,10.229525,101.01296,836.73562)"><path
         d="m 0,0 0.653,-0.491 c 0,0 2.054,1.985 5.168,3.218 0,0 -3.686,-0.942 -5.605,-2.378"
         style="fill:#ffffff;fill-opacity:1;fill-rule:nonzero;stroke:none"
         id="path360" /></g><g
       id="g362"
       transform="matrix(10.229525,0,0,10.229525,98.864756,858.13579)"><path
         d="m 0,0 1.075,-0.826 c 0,0 0.814,2.283 5.181,3.97 0,0 -3.863,-0.811 -6.091,-2.939"
         style="fill:#ffffff;fill-opacity:1;fill-rule:nonzero;stroke:none"
         id="path364" /></g><g
       id="g366"
       transform="matrix(10.229525,0,0,10.229525,78.52846,864.02799)"><path
         d="m 0,0 0,2.888 c 0,0 2.258,1.837 4.463,3.045 0,0 -3.151,-2.782 -3.675,-3.99 l 0.315,-2.521"
         style="fill:#ffffff;fill-opacity:1;fill-rule:nonzero;stroke:none"
         id="path368" /></g><g
       id="g370"
       transform="matrix(10.229525,0,0,10.229525,63.695649,848.55072)"><path
         d="m 0,0 c 0,0 -2.56,2.756 -3.705,4.048 0,0 3.407,-3.178 5.612,-3.872"
         style="fill:#ffffff;fill-opacity:1;fill-rule:nonzero;stroke:none"
         id="path372" /></g><g
       id="g374"
       transform="matrix(10.229525,0,0,10.229525,84.952602,713.55168)"><path
         d="M 0,0 C 0,0 0.982,0.607 -0.233,1.447 L 2.895,1.938"
         style="fill:#ffffff;fill-opacity:1;fill-rule:evenodd;stroke:none"
         id="path376" /></g><g
       id="g378"
       transform="matrix(10.229525,0,0,10.229525,80.69712,743.65717)"><path
         d="M 0,0 C 0,0 0.633,0.966 -0.823,1.213 L 1.804,2.981"
         style="fill:#ffffff;fill-opacity:1;fill-rule:evenodd;stroke:none"
         id="path380" /></g><g
       id="g382"
       transform="matrix(10.229525,0,0,10.229525,64.452634,718.56415)"><path
         d="m 0,0 c 0,0 -2.151,-3.086 -3.106,-4.525 0,0 2.932,3.622 5.019,4.617"
         style="fill:#ffffff;fill-opacity:1;fill-rule:nonzero;stroke:none"
         id="path384" /></g><g
       id="g386"
       transform="matrix(10.229525,0,0,10.229525,76.083604,697.76752)"><path
         d="M 0,0 C 0,0 -0.318,-1.123 1.12,-0.783 L -0.736,-3.405"
         style="fill:#ffffff;fill-opacity:1;fill-rule:evenodd;stroke:none"
         id="path388" /></g><g
       id="g390"
       transform="matrix(10.229525,0,0,10.229525,70.580119,741.50897)"><path
         d="m 0,0 c 0,0 -1.155,-0.167 -0.26,-1.341 l -6.104,0.895"
         style="fill:#ffffff;fill-opacity:1;fill-rule:nonzero;stroke:none"
         id="path392" /></g><g
       id="g394"
       transform="matrix(10.229525,0,0,10.229525,502.59342,1160.5001)"><path
         d="m 0,0 2.832,0 0,-0.35 -2.536,0 2.536,-0.986 0,-0.233 -2.536,-0.987 2.536,0 0,-0.35 -2.832,0 0,0.645 2.092,0.809 0,0.013 L 0,-0.646 0,0 z m 0,-3.432 0.268,0 0,-0.9 2.564,0 0,-0.351 -2.564,0 0,-0.902 -0.268,0"
         style="fill:#004960;fill-opacity:1;fill-rule:nonzero;stroke:none"
         id="path396" /></g><text
       transform="matrix(0,1,1,0,0,0)"
       id="text448"
       x="-4169.9429"
       y="-1314.1865"
       style="font-size:122.75430298px"><tspan
         style="font-size:102.25125885px;font-variant:normal;font-weight:normal;writing-mode:lr-tb;fill:#ffffff;fill-opacity:1;fill-rule:nonzero;stroke:none;font-family:HelveticaMaoriLight;-inkscape-font-specification:HelveticaMaoriLight"
         x="-4169.9429"
         y="-1314.1865"
         id="tspan450"></tspan></text>
<text
       transform="matrix(0,1,1,0,0,0)"
       id="text488"
       x="-575.2099"
       y="-443.1282"
       style="font-size:122.75430298px"><tspan
         style="font-size:92.02583313px;font-variant:normal;font-weight:normal;writing-mode:lr-tb;fill:#231f20;fill-opacity:1;fill-rule:nonzero;stroke:none;font-family:HelveticaMaoriLight;-inkscape-font-specification:HelveticaMaoriLight"
         x="-575.2099 -549.16663 -523.12329 -497.07999 -471.03668 -444.99335 -418.95004 -392.90674 -366.86343 -340.82013 -314.77679 -288.73349 -262.69019 -236.64687 -210.60358 -184.56024 -158.51695 -132.47366 -106.43033 -80.387032 -54.343704 -28.300411 -2.2570794 23.786213 49.829544 75.872841 101.91617 127.95942 154.00276 180.04608 206.08942 232.13268 258.17599 284.21933 310.26257 336.30591 362.34924 388.39258 414.43582 440.47916 466.52249 492.56583 518.60907 544.6524 570.69574 596.73901 622.78235 648.82568 674.86902 700.91223 726.95557 752.9989 779.04224 805.08557 831.12872 857.17206 883.21539"
         y="-443.1282"
         sodipodi:role="line"
         id="tspan490"></tspan></text>
</g></svg>